<svg width="300" height="67" viewBox="0 0 300 67" fill="none" xmlns="http://www.w3.org/2000/svg">
<g clip-path="url(#clip0)">
<path d="M0 61.7315H6.62484L29.9624 9.25972L27.8545 4.44166L28.3814 2.40903H35.9097L62.5596 61.7315H68.8833V65.4956H43.3626V61.7315H53.1493L44.5671 42.3839H19.7992L15.0565 53.2246V61.7315H23.1117V65.4956H0V61.7315ZM42.7603 38.0176L32.0703 14.0025L21.6813 38.0176H42.7603Z" fill="black"/>
<path d="M74.5295 62.1832H82.8858V28.6073L73.6261 33.0489L72.3463 29.2848L90.6399 22.7353V31.6186C94.7804 26.7252 100.276 22.8105 106.524 22.8105C114.655 22.8105 119.172 27.5533 119.172 35.3074V62.1079H127.528V65.4956H103.965V62.1832H111.493V36.813C111.493 31.9197 107.804 28.6826 102.535 28.6826C97.7917 28.6826 93.7265 30.6399 90.7152 33.6512V62.1079H98.2434V65.4956H74.5295V62.1832Z" fill="black"/>
<path d="M134.605 55.7842V28.4567L127.679 28.0803V25.6713L137.541 23.3375L136.035 7.00126H142.509L140.928 23.8645H158.62V28.4567H142.359V53.8269C142.359 59.9247 145.295 61.2045 148.984 61.2045C153.501 61.2045 155.834 59.0213 155.834 55.7842L155.006 42.3839H159.975L159.222 55.7842C158.846 63.0866 153.124 66.5496 146.725 66.5496C140.025 66.5496 134.605 63.99 134.605 55.7842Z" fill="black"/>
<path d="M164.115 62.1832H172.396V5.9473L163.137 10.389L161.857 6.62484L180.226 0V31.6186C184.366 26.7252 189.862 22.8105 195.96 22.8105C204.316 22.8105 208.833 27.5533 208.833 35.3074V62.1079H217.189V65.4956H193.626V62.1832H201.154V36.813C201.154 31.9197 197.466 28.6826 192.196 28.6826C187.453 28.6826 183.388 30.6399 180.376 33.6512V62.1079H187.905V65.4956H164.115V62.1832Z" fill="black"/>
<path d="M219.147 45.3952C219.147 30.941 229.912 22.8105 241.506 22.8105C253.476 22.8105 262.585 31.3174 262.585 43.739C262.585 58.1932 251.744 66.4743 240.075 66.4743C228.407 66.5496 219.147 57.7415 219.147 45.3952ZM253.852 47.5784C253.852 34.6299 248.281 25.7466 239.774 25.7466C232.923 25.7466 227.955 31.6939 227.955 41.9322C227.955 54.8055 233.676 63.3877 242.108 63.3877C249.034 63.3877 253.852 57.8168 253.852 47.5784Z" fill="black"/>
<path d="M273.651 59.6989V65.6462H268.833V50.5897H273.651V56.6123C276.136 61.2045 280.577 63.2371 285.471 63.2371C291.041 63.2371 293.601 59.473 293.601 56.3112C293.601 52.5471 292.848 49.6863 281.932 47.2773C270.64 44.793 268.833 40.276 268.833 34.1782C268.833 27.7039 274.63 22.8858 281.857 22.8858C287.202 22.8858 290.891 24.542 293.225 28.532V23.1869H297.742V37.867H293.225V32.0703C291.493 28.005 287.202 25.9724 282.459 25.9724C278.394 25.9724 275.533 28.4567 275.533 32.2961C275.533 35.5332 276.587 38.6198 285.395 40.4266C297.516 42.8356 299.925 47.0514 299.925 53.3752C299.925 61.1292 294.504 66.6248 285.772 66.6248C280.125 66.5496 275.91 64.1405 273.651 59.6989Z" fill="black"/>
</g>
<defs>
<clipPath id="clip0">
<rect width="300" height="66.5496" fill="white"/>
</clipPath>
</defs>
</svg>
